<svg xmlns="http://www.w3.org/2000/svg" xmlns:xlink="http://www.w3.org/1999/xlink" data-background-color="#ffa458" preserveAspectRatio="xMidYMid meet" height="137.75675731405363" width="404.53153241391817" style=""><rect id="backgroundrect" width="100%" height="100%" x="0" y="0" fill="none" stroke="none" class="" style=""/><defs/><g class="currentLayer" style=""><title>Layer 1</title><g id="tight-bounds" class=""><g id="svg_3" transform="matrix(1,0,0,1,122.24000000000001,135.09133124479956) " stroke-width="0"><svg viewBox="0 0 395.52 129.81733751040085" height="129.8173370361328" width="395.5199890136719" id="svg_19" x="-118.91891860961914" y="-131.5315284729004"><g id="svg_6"><svg viewBox="0 0 614.3840288891835 201.65275798773007" height="129.8173370361328" width="395.5199890136719" id="svg_20"><g transform="matrix(1,0,0,1,0,64.34794954601227) " id="svg_8"><svg viewBox="0 0 395.52 72.95685889570552" height="72.95685577392578" width="395.5199890136719" id="svg_21"><g id="svg_10"><svg viewBox="0 0 395.52 72.95685889570552" height="72.95685577392578" width="395.5199890136719" id="svg_22"><g id="svg_12"><svg viewBox="0 0 395.52 72.95685889570552" height="72.95685577392578" width="395.5199890136719" id="svg_23"><g id="svg_14"><svg width="395.5199890136719" viewBox="-4 -56.150001525878906 363.6499938964844 66.05999755859375" height="72.95685577392578" data-palette-color="#f7f7f7" id="svg_24"><g class="undefined-text-0" data-fill-palette-color="primary" id="svg_13"><path d="M48.68-44.19L48.68-44.19Q48.68-42.48 48.05-40.89 47.41-39.31 47.12-37.65L47.12-37.65Q46.04-36.23 45.12-34.72 44.19-33.2 43.21-31.69 42.24-30.18 41.16-28.78 40.09-27.39 38.72-26.27L38.72-26.27Q38.77-26.22 38.77-26.07L38.77-26.07Q38.77-25.78 38.5-25.61 38.23-25.44 38.33-25.2L38.33-25.2Q37.11-23.93 35.94-22.71 34.77-21.48 33.79-19.97L33.79-19.97Q32.71-19.43 32.03-18.21L32.03-18.21Q31.74-18.21 31.59-18.09 31.45-17.97 31.2-17.87L31.2-17.87Q29.64-15.97 27.93-14.26 26.22-12.55 24.27-11.13L24.27-11.13Q23.54-10.6 22.8-10.16 22.07-9.72 21.39-9.23L21.39-9.23Q20.95-8.94 20.53-8.54 20.12-8.15 19.68-7.81L19.68-7.81Q18.26-6.59 16.89-5.79 15.53-4.98 13.67-4.69L13.67-4.69Q13.53-4.15 13.53-3.52L13.53-3.52 13.53-2.34Q13.53-1.76 13.48-1.15 13.43-0.54 13.13 0L13.13 0 13.13 0.15Q13.13 0.63 13.38 1.1 13.62 1.56 13.62 2.05L13.62 2.05Q13.62 2.39 13.28 2.64L13.28 2.64 14.55 2.64Q14.55 3.32 14.97 3.81 15.38 4.3 15.38 4.54L15.38 4.54Q15.38 5.37 15.21 6.37 15.04 7.37 14.21 7.71L14.21 7.71 14.21 8.01Q14.21 8.5 14.11 8.96 14.01 9.42 13.67 9.86L13.67 9.86Q13.38 9.86 13.11 9.89 12.84 9.91 12.6 9.91L12.6 9.91Q10.55 9.91 8.94 8.94L8.94 8.94Q8.4 7.67 8.23 6.32 8.06 4.98 8.06 3.61L8.06 3.61Q8.06 0.93 8.45-1.71 8.84-4.35 9.08-6.98L9.08-6.98 9.81-8.4Q9.91-9.77 10.16-11.16 10.4-12.55 10.64-13.92 10.89-15.28 11.06-16.65 11.23-18.02 11.18-19.38L11.18-19.38Q11.57-20.21 11.74-21.14 11.91-22.07 11.91-22.95L11.91-22.95Q11.91-23.44 11.87-23.93 11.82-24.41 11.57-24.85L11.57-24.85Q11.87-25.05 11.96-25.34 12.06-25.63 12.26-25.88L12.26-25.88Q12.4-27.78 12.5-29.66 12.6-31.54 12.6-33.4L12.6-33.4Q12.6-34.42 12.55-35.42 12.5-36.43 12.4-37.45L12.4-37.45Q12.35-37.84 12.23-38.38 12.11-38.92 12.11-39.21L12.11-39.21Q12.11-39.6 12.16-40.01 12.21-40.43 12.21-40.87L12.21-40.87Q12.21-41.36 12.11-41.82 12.01-42.29 11.77-42.68L11.77-42.68Q9.42-41.99 7.57-40.84 5.71-39.7 3.81-38.28L3.81-38.28Q3.03-37.74 2.1-37.01 1.17-36.28 0.34-35.89L0.34-35.89Q0.2-35.79-0.02-35.77-0.24-35.74-0.39-35.74L-0.39-35.74Q-0.93-35.74-1.37-35.82-1.81-35.89-2.25-35.89L-2.25-35.89Q-2.93-36.57-3.86-36.96L-3.86-36.96Q-4-37.55-4-38.23L-4-38.23Q-4-38.92-3.88-39.55-3.76-40.19-3.52-40.82L-3.52-40.82Q-2.93-41.02-2.27-41.26-1.61-41.5-1-41.82-0.39-42.14 0.1-42.55 0.59-42.97 0.88-43.6L0.88-43.6Q1.17-43.46 1.42-43.46L1.42-43.46Q1.66-43.46 1.86-43.51 2.05-43.55 2.29-43.6L2.29-43.6Q3.17-44.14 4.08-44.73 4.98-45.31 5.96-45.7L5.96-45.7Q6.25-45.8 6.3-45.95 6.35-46.09 6.3-46.39L6.3-46.39Q7.42-46.73 8.64-47.19 9.86-47.66 10.69-48.49L10.69-48.49 11.57-48.49Q12.3-49.02 13.13-49.37 13.96-49.71 14.82-50.02 15.67-50.34 16.5-50.71 17.33-51.07 18.07-51.66L18.07-51.66Q18.36-51.76 18.55-51.76L18.55-51.76Q18.8-51.76 19.09-51.66L19.09-51.66Q19.58-51.9 19.92-52.25L19.92-52.25 20.7-53.03Q21.48-53.03 22.12-53.17 22.75-53.32 23.34-53.56 23.93-53.81 24.49-54.13 25.05-54.44 25.73-54.79L25.73-54.79Q26.03-54.69 26.17-54.57 26.32-54.44 26.66-54.44L26.66-54.44Q27.15-54.79 27.71-54.96 28.27-55.13 28.86-55.22 29.44-55.32 30-55.47 30.57-55.62 31.01-56.01L31.01-56.01Q32.57-56.01 34.16-56.08 35.74-56.15 37.3-56.15L37.3-56.15Q39.55-56.15 41.87-55.81 44.19-55.47 46.04-54.1L46.04-54.1Q46.78-52.34 48.14-51.12L48.14-51.12Q48.24-50.59 48.36-50.12 48.49-49.66 48.68-49.22L48.68-49.22Q48.34-48.49 48.34-47.61L48.34-47.61Q48.34-46.73 48.51-45.87 48.68-45.02 48.68-44.19ZM44.14-45.36L44.14-45.36Q43.9-45.8 43.82-46.36 43.75-46.92 43.8-47.46L43.8-47.46Q43.16-47.95 42.82-48.73 42.48-49.51 41.85-49.9L41.85-49.9Q41.41-50.15 40.6-50.2 39.79-50.24 39.26-50.39L39.26-50.39Q38.62-50.59 38.4-50.78 38.18-50.98 37.5-50.98L37.5-50.98Q36.91-50.98 36.33-50.85 35.74-50.73 35.16-50.73L35.16-50.73Q34.67-50.73 34.23-50.93 33.79-51.12 33.3-51.12L33.3-51.12Q32.76-51.12 32.3-50.78 31.84-50.44 31.2-50.59L31.2-50.59Q30.91-50.34 30.88-50.2 30.86-50.05 30.81-49.98 30.76-49.9 30.57-49.9L30.57-49.9 29.88-49.9Q28.86-49.9 27.81-49.61 26.76-49.32 25.93-48.63L25.93-48.63Q25.78-48.68 25.66-48.71 25.54-48.73 25.39-48.73L25.39-48.73Q24.56-48.73 23.8-48.27 23.05-47.8 22.12-47.8L22.12-47.8Q21.53-47.22 20.7-46.88 19.87-46.53 19.02-46.22 18.16-45.9 17.43-45.48 16.7-45.07 16.31-44.29L16.31-44.29Q16.26-43.9 16.55-43.8 16.85-43.7 16.85-43.31L16.85-43.31Q16.85-42.97 16.72-42.48 16.6-41.99 16.6-41.5L16.6-41.5Q16.6-40.38 16.85-39.31 17.09-38.23 17.33-37.11L17.33-37.11Q17.09-36.96 16.99-36.67 16.89-36.38 16.65-36.23L16.65-36.23Q17.33-34.18 17.33-32.03L17.33-32.03Q17.33-30.32 16.97-28.69 16.6-27.05 16.46-25.34L16.46-25.34 16.46-25.29Q16.46-25 16.65-24.9 16.85-24.8 16.85-24.56L16.85-24.56Q16.85-24.41 16.8-24.32L16.8-24.32Q16.26-21 15.75-17.68 15.23-14.36 14.89-10.99L14.89-10.99 15.28-10.99Q16.55-10.99 17.55-11.74 18.55-12.5 19.24-13.43L19.24-13.43 20.02-13.43Q23.54-16.5 26.78-19.78 30.03-23.05 32.96-26.81L32.96-26.81Q33.35-26.81 33.5-27 33.64-27.2 33.98-27.29L33.98-27.29Q35.01-28.71 36.13-30.1 37.26-31.49 38.57-32.76L38.57-32.76Q38.62-33.25 38.84-33.64 39.06-34.03 39.31-34.38 39.55-34.72 39.75-35.11 39.94-35.5 39.94-36.04L39.94-36.04Q40.19-36.13 40.48-36.25 40.77-36.38 41.02-36.62L41.02-36.62Q41.11-37.11 41.36-37.5 41.6-37.89 41.6-38.38L41.6-38.38Q41.6-38.57 41.5-38.87L41.5-38.87Q42.29-39.21 42.72-39.99 43.16-40.77 43.41-41.72 43.65-42.68 43.77-43.65 43.9-44.63 44.14-45.36ZM56.39-6.69L56.39-6.69Q56.15-6.3 55.81-5.98 55.47-5.66 55.17-5.32L55.17-5.32Q54.83-5.18 54.42-5.18 54-5.18 53.64-5.2 53.27-5.22 52.95-5.2 52.63-5.18 52.44-4.98L52.44-4.98Q52.05-5.08 51.85-5.35 51.66-5.62 51.17-5.66L51.17-5.66Q50.97-5.71 50.78-5.66L50.78-5.66Q50.05-6.49 49.44-7.42 48.83-8.35 48.29-9.18L48.29-9.18Q48.24-10.99 48-12.84L48-12.84Q47.95-13.28 47.85-13.72 47.75-14.16 47.7-14.55L47.7-14.55Q47.7-15.04 47.78-15.5 47.85-15.97 47.9-16.36L47.9-16.36Q48.09-17.77 48.34-19.14 48.58-20.51 48.78-21.92L48.78-21.92Q48.97-23.19 48.97-24.58 48.97-25.98 48.53-27.2L48.53-27.2 48.48-27.44Q48.58-27.83 48.7-28.1 48.83-28.37 48.87-28.71L48.87-28.71Q48.97-29.25 48.63-29.49L48.63-29.49Q48.78-29.88 49.12-30 49.46-30.13 49.51-30.57L49.51-30.57Q49.56-30.76 49.51-30.96L49.51-30.96Q49.9-31.1 50.31-31.23 50.73-31.35 51.12-31.25L51.12-31.25Q51.76-31.15 52.24-30.83 52.73-30.52 53.17-30.13L53.17-30.13Q53.95-27.78 53.81-25.17 53.66-22.56 53.32-19.92 52.98-17.29 52.88-14.77 52.78-12.26 53.66-10.11L53.66-10.11 53.76-10.06Q54-10.01 54.15-10.23 54.29-10.45 54.54-10.4L54.54-10.4Q54.73-10.3 54.78-10.3L54.78-10.3Q54.98-9.33 55.42-8.45 55.86-7.57 56.39-6.69ZM116.69-12.16L116.69-12.16Q116.5-11.33 115.94-10.86 115.38-10.4 114.64-10.16 113.91-9.91 113.11-9.81 112.3-9.72 111.66-9.67L111.66-9.67Q110.98-9.33 110.44-8.91 109.91-8.5 109.32-8.11L109.32-8.11Q105.02-7.57 100.83-6.79 96.63-6.01 92.33-5.47L92.33-5.47Q91.74-5.08 90.82-4.96 89.89-4.83 88.89-4.76 87.89-4.69 86.91-4.52 85.93-4.35 85.2-3.91L85.2-3.91Q82.03-3.76 79.05-2.83L79.05-2.83Q78.51-2.98 77.95-3.08 77.39-3.17 76.85-3.17L76.85-3.17Q76.46-3.17 75.97-3.1 75.48-3.03 75.19-2.64L75.19-2.64Q74.02-3.56 72.41-3.32L72.41-3.32Q71.09-3.91 70.09-4.79 69.09-5.66 68.55-7.03L68.55-7.03Q68.6-7.81 68.55-8.23 68.5-8.64 67.87-9.13L67.87-9.13Q67.87-9.47 68.09-9.67 68.31-9.86 68.35-10.21L68.35-10.21Q68.16-10.55 68.16-11.04L68.16-11.04Q68.16-11.87 68.45-12.72 68.75-13.57 68.55-14.4L68.55-14.4Q69.23-15.53 70.11-16.53 70.99-17.53 71.89-18.48 72.8-19.43 73.7-20.41 74.6-21.39 75.39-22.46L75.39-22.46Q76.31-22.75 77.07-23.36 77.83-23.97 78.54-24.66 79.24-25.34 79.98-25.98 80.71-26.61 81.68-27L81.68-27Q81.78-27.29 82-27.51 82.22-27.73 82.47-27.93 82.71-28.13 82.93-28.37 83.15-28.61 83.25-28.96L83.25-28.96 82.81-28.96Q80.61-28.96 78.41-28.69 76.22-28.42 74.04-28.05 71.87-27.69 69.72-27.29 67.57-26.9 65.38-26.66L65.38-26.66Q64.55-26.22 63.57-25.88 62.59-25.54 61.64-25.2 60.69-24.85 59.79-24.41 58.88-23.97 58.2-23.34L58.2-23.34Q58.05-23.29 57.76-23.29L57.76-23.29Q57.22-23.29 56.83-23.51 56.44-23.73 55.95-23.83L55.95-23.83Q55.85-24.61 55.63-25.32 55.41-26.03 55.41-26.81L55.41-26.81Q55.41-27.44 55.61-27.88L55.61-27.88Q56.29-27.88 56.56-28.32 56.83-28.76 57.37-29.1L57.37-29.1Q57.51-28.96 57.66-28.96L57.66-28.96Q57.91-28.96 58.1-29.15 58.3-29.35 58.59-29.54 58.88-29.74 59.27-29.88 59.66-30.03 60.3-29.98L60.3-29.98Q61.76-30.76 63.06-30.96 64.35-31.15 65.91-31.4L65.91-31.4Q66.3-31.49 66.45-31.64 66.6-31.79 66.79-32.08L66.79-32.08 67.82-32.03Q69.92-31.93 72.02-32.3 74.12-32.67 76.19-33.11 78.27-33.54 80.39-33.86 82.51-34.18 84.66-33.98L84.66-33.98Q85.2-34.23 85.76-34.28 86.32-34.33 86.91-34.33L86.91-34.33Q87.69-34.33 88.62-34.18 89.55-34.03 90.35-33.64 91.16-33.25 91.67-32.59 92.18-31.93 92.18-30.96L92.18-30.96Q92.18-30.42 91.94-29.98 91.69-29.54 91.35-29.15 91.01-28.76 90.62-28.39 90.23-28.03 89.89-27.69L89.89-27.69Q89.35-27.1 88.89-26.44 88.42-25.78 87.79-25.24L87.79-25.24Q87.45-25.29 87.28-25.1 87.1-24.9 86.76-24.9L86.76-24.9Q86.13-24.61 86.03-23.83L86.03-23.83Q84.71-23.29 83.49-22.56 82.27-21.83 81.49-20.56L81.49-20.56Q80.46-19.92 79.56-19.12 78.66-18.31 77.83-17.43 77-16.55 76.19-15.65 75.39-14.75 74.51-13.92L74.51-13.92Q74.41-13.18 74.16-12.55 73.92-11.91 73.63-11.23L73.63-11.23Q73.63-10.69 73.97-10.3 74.31-9.91 74.31-9.28L74.31-9.28Q75.53-9.03 76.73-8.91 77.92-8.79 79.19-8.79L79.19-8.79Q80.41-8.79 81.64-8.96 82.86-9.13 83.93-9.67L83.93-9.67Q84.66-9.47 85.44-9.47L85.44-9.47Q86.52-9.47 87.52-9.69 88.52-9.91 89.55-9.86L89.55-9.86Q90.77-10.3 92.06-10.47 93.35-10.64 94.62-10.77 95.89-10.89 97.19-11.08 98.48-11.28 99.7-11.82L99.7-11.82Q100.39-11.67 100.97-11.77 101.56-11.87 102.24-11.87L102.24-11.87Q102.73-11.87 103.41-11.57L103.41-11.57Q104.19-11.96 105.05-12.26 105.9-12.55 106.78-12.55L106.78-12.55Q107.12-12.55 107.47-12.5 107.81-12.45 108.1-12.3L108.1-12.3Q108.2-12.35 108.59-12.5 108.98-12.65 109.42-12.79 109.86-12.94 110.25-13.06 110.64-13.18 110.74-13.18L110.74-13.18Q111.13-13.18 111.1-12.96 111.08-12.74 111.32-12.74L111.32-12.74Q112.15-12.74 112.93-13.06 113.72-13.38 114.55-13.38L114.55-13.38Q114.89-13.38 115.18-13.33 115.47-13.28 115.86-13.18L115.86-13.18Q116.06-12.89 116.21-12.57 116.35-12.26 116.69-12.16ZM156-12.16L156-12.16Q155.8-11.33 155.24-10.86 154.68-10.4 153.95-10.16 153.22-9.91 152.41-9.81 151.6-9.72 150.97-9.67L150.97-9.67Q150.29-9.33 149.75-8.91 149.21-8.5 148.63-8.11L148.63-8.11Q144.33-7.57 140.13-6.79 135.93-6.01 131.63-5.47L131.63-5.47Q131.05-5.08 130.12-4.96 129.19-4.83 128.19-4.76 127.19-4.69 126.21-4.52 125.24-4.35 124.5-3.91L124.5-3.91Q121.33-3.76 118.35-2.83L118.35-2.83Q117.81-2.98 117.25-3.08 116.69-3.17 116.15-3.17L116.15-3.17Q115.76-3.17 115.28-3.1 114.79-3.03 114.49-2.64L114.49-2.64Q113.32-3.56 111.71-3.32L111.71-3.32Q110.39-3.91 109.39-4.79 108.39-5.66 107.85-7.03L107.85-7.03Q107.9-7.81 107.85-8.23 107.81-8.64 107.17-9.13L107.17-9.13Q107.17-9.47 107.39-9.67 107.61-9.86 107.66-10.21L107.66-10.21Q107.46-10.55 107.46-11.04L107.46-11.04Q107.46-11.87 107.76-12.72 108.05-13.57 107.85-14.4L107.85-14.4Q108.54-15.53 109.42-16.53 110.3-17.53 111.2-18.48 112.1-19.43 113.01-20.41 113.91-21.39 114.69-22.46L114.69-22.46Q115.62-22.75 116.37-23.36 117.13-23.97 117.84-24.66 118.55-25.34 119.28-25.98 120.01-26.61 120.99-27L120.99-27Q121.09-27.29 121.31-27.51 121.53-27.73 121.77-27.93 122.01-28.13 122.23-28.37 122.45-28.61 122.55-28.96L122.55-28.96 122.11-28.96Q119.91-28.96 117.72-28.69 115.52-28.42 113.35-28.05 111.17-27.69 109.03-27.29 106.88-26.9 104.68-26.66L104.68-26.66Q103.85-26.22 102.87-25.88 101.9-25.54 100.94-25.2 99.99-24.85 99.09-24.41 98.19-23.97 97.5-23.34L97.5-23.34Q97.36-23.29 97.06-23.29L97.06-23.29Q96.53-23.29 96.14-23.51 95.74-23.73 95.26-23.83L95.26-23.83Q95.16-24.61 94.94-25.32 94.72-26.03 94.72-26.81L94.72-26.81Q94.72-27.44 94.91-27.88L94.91-27.88Q95.6-27.88 95.87-28.32 96.14-28.76 96.67-29.1L96.67-29.1Q96.82-28.96 96.97-28.96L96.97-28.96Q97.21-28.96 97.4-29.15 97.6-29.35 97.89-29.54 98.19-29.74 98.58-29.88 98.97-30.03 99.6-29.98L99.6-29.98Q101.07-30.76 102.36-30.96 103.65-31.15 105.22-31.4L105.22-31.4Q105.61-31.49 105.75-31.64 105.9-31.79 106.1-32.08L106.1-32.08 107.12-32.03Q109.22-31.93 111.32-32.3 113.42-32.67 115.5-33.11 117.57-33.54 119.69-33.86 121.82-34.18 123.97-33.98L123.97-33.98Q124.5-34.23 125.07-34.28 125.63-34.33 126.21-34.33L126.21-34.33Q126.99-34.33 127.92-34.18 128.85-34.03 129.66-33.64 130.46-33.25 130.97-32.59 131.49-31.93 131.49-30.96L131.49-30.96Q131.49-30.42 131.24-29.98 131-29.54 130.66-29.15 130.31-28.76 129.92-28.39 129.53-28.03 129.19-27.69L129.19-27.69Q128.65-27.1 128.19-26.44 127.73-25.78 127.09-25.24L127.09-25.24Q126.75-25.29 126.58-25.1 126.41-24.9 126.07-24.9L126.07-24.9Q125.43-24.61 125.33-23.83L125.33-23.83Q124.02-23.29 122.8-22.56 121.57-21.83 120.79-20.56L120.79-20.56Q119.77-19.92 118.86-19.12 117.96-18.31 117.13-17.43 116.3-16.55 115.5-15.65 114.69-14.75 113.81-13.92L113.81-13.92Q113.71-13.18 113.47-12.55 113.22-11.91 112.93-11.23L112.93-11.23Q112.93-10.69 113.27-10.3 113.62-9.91 113.62-9.28L113.62-9.28Q114.84-9.03 116.03-8.91 117.23-8.79 118.5-8.79L118.5-8.79Q119.72-8.79 120.94-8.96 122.16-9.13 123.23-9.67L123.23-9.67Q123.97-9.47 124.75-9.47L124.75-9.47Q125.82-9.47 126.82-9.69 127.82-9.91 128.85-9.86L128.85-9.86Q130.07-10.3 131.36-10.47 132.66-10.64 133.93-10.77 135.2-10.89 136.49-11.08 137.79-11.28 139.01-11.82L139.01-11.82Q139.69-11.67 140.28-11.77 140.86-11.87 141.55-11.87L141.55-11.87Q142.03-11.87 142.72-11.57L142.72-11.57Q143.5-11.96 144.35-12.26 145.21-12.55 146.09-12.55L146.09-12.55Q146.43-12.55 146.77-12.5 147.11-12.45 147.4-12.3L147.4-12.3Q147.5-12.35 147.89-12.5 148.28-12.65 148.72-12.79 149.16-12.94 149.55-13.06 149.94-13.18 150.04-13.18L150.04-13.18Q150.43-13.18 150.41-12.96 150.38-12.74 150.63-12.74L150.63-12.74Q151.46-12.74 152.24-13.06 153.02-13.38 153.85-13.38L153.85-13.38Q154.19-13.38 154.48-13.33 154.78-13.28 155.17-13.18L155.17-13.18Q155.36-12.89 155.51-12.57 155.66-12.26 156-12.16ZM175.97-3.56L175.97-3.56Q175.82-2.88 175.36-2.47 174.89-2.05 174.26-1.81 173.62-1.56 172.96-1.49 172.3-1.42 171.77-1.42L171.77-1.42Q171.52-1.42 171.3-1.44 171.08-1.46 170.84-1.46L170.84-1.46Q170.6-1.46 170.6-1.22 170.6-0.98 170.35-0.88L170.35-0.88Q170.11-0.98 169.86-1.03 169.62-1.07 169.37-1.07L169.37-1.07Q169.03-1.07 168.72-1.03 168.4-0.98 168.11-0.98L168.11-0.98Q167.71-0.98 167.54-1.07 167.37-1.17 167.25-1.29 167.13-1.42 167.01-1.56 166.88-1.71 166.64-1.81L166.64-1.81Q166.3-1.95 166.08-1.86 165.86-1.76 165.42-2.15L165.42-2.15Q164.83-2.64 164.42-3.34 164-4.05 163.61-4.83 163.22-5.62 162.78-6.4 162.34-7.18 161.76-7.76L161.76-7.76 161.37-7.76Q160.49-7.76 160.15-7.03L160.15-7.03Q159.9-7.18 159.66-7.4 159.41-7.62 159.12-7.76L159.12-7.76Q158-7.42 156.78-7.18 155.56-6.93 154.34-6.93L154.34-6.93 153.65-6.93Q153.36-6.93 153.02-7.03L153.02-7.03Q152.53-6.84 152.14-6.57 151.75-6.3 151.26-6.3L151.26-6.3Q150.97-6.3 150.58-6.49L150.58-6.49Q150.28-6.49 150.31-6.25 150.33-6.01 149.99-6.01L149.99-6.01 149.55-6.01Q148.87-6.01 148.21-5.96 147.55-5.91 146.87-5.91L146.87-5.91Q145.94-5.91 144.96-6.15L144.96-6.15Q144.72-6.01 144.42-6.01L144.42-6.01Q144.23-5.91 144.13-5.69 144.03-5.47 143.94-5.3 143.84-5.13 143.67-5 143.5-4.88 143.2-4.93L143.2-4.93Q143.11-4.35 142.71-4 142.32-3.66 142.32-2.98L142.32-2.98Q141.79-2.69 141.45-2.25 141.1-1.81 140.76-1.32 140.42-0.83 140.05-0.39 139.69 0.05 139.15 0.29L139.15 0.29Q138.91 0.59 139 1.22L139 1.22Q138.47 1.66 137.69 2 136.9 2.34 136.22 2.34L136.22 2.34Q134.8 2.34 134.27 0.83L134.27 0.83Q134.27 0.34 134.34-0.22 134.41-0.78 134.56-1.29 134.71-1.81 135-2.22 135.29-2.64 135.83-2.83L135.83-2.83Q135.83-3.27 135.54-3.44 135.24-3.61 135.29-4.05L135.29-4.05Q136.61-4.69 137.59-5.71 138.56-6.74 139.37-7.89 140.18-9.03 141.01-10.21 141.84-11.38 142.86-12.3L142.86-12.3 142.86-13.33Q144.33-14.89 144.77-16.85L144.77-16.85Q145.3-16.94 145.47-17.33 145.64-17.72 145.64-18.26L145.64-18.26Q145.89-18.26 145.96-18.48 146.03-18.7 146.38-18.6L146.38-18.6Q146.82-19.78 147.35-20.75 147.89-21.73 148.43-22.73 148.96-23.73 149.38-24.8 149.79-25.88 149.99-27.2L149.99-27.2Q150.67-27.25 150.75-27.86 150.82-28.47 150.92-28.96L150.92-28.96Q151.65-29.64 152.02-30.57 152.38-31.49 152.68-32.5 152.97-33.5 153.33-34.5 153.7-35.5 154.38-36.28L154.38-36.28 154.38-36.43Q154.38-36.67 154.19-36.74 153.99-36.82 153.99-37.06L153.99-37.06Q154.04-37.11 154.04-37.16L154.04-37.16Q154.63-37.4 154.92-37.96 155.21-38.53 155.8-38.77L155.8-38.77Q156.83-37.94 157.61-37.77 158.39-37.6 159.66-37.5L159.66-37.5Q160.29-36.82 160.37-35.86 160.44-34.91 160.68-33.98L160.68-33.98Q161.07-32.42 161.54-30.93 162-29.44 162.25-27.88L162.25-27.88Q162.39-26.95 162.78-26.12 163.17-25.29 163.32-24.41L163.32-24.41Q163.42-23.73 163.32-22.88 163.22-22.02 163.52-21.39L163.52-21.39 163.86-20.61Q164.1-20.07 164.27-19.48 164.44-18.9 164.59-18.31L164.59-18.31Q164.98-16.85 165.3-15.16 165.62-13.48 166.3-12.11L166.3-12.11Q166.54-11.62 167.06-11.43 167.57-11.23 168.2-11.16 168.84-11.08 169.45-11.11 170.06-11.13 170.5-11.13L170.5-11.13 170.99-11.13Q171.28-11.13 171.57-11.04L171.57-11.04Q171.77-10.64 171.77-10.35L171.77-10.35Q171.77-9.77 171.38-9.42 170.99-9.08 170.99-8.64L170.99-8.64Q170.99-8.4 171.18-8.11L171.18-8.11Q170.99-8.15 170.6-8.15L170.6-8.15Q169.47-8.15 168.4-7.76L168.4-7.76Q168.79-6.93 169.45-6.37 170.11-5.81 170.84-5.32L170.84-5.32Q171.33-5.71 171.87-5.71L171.87-5.71Q172.45-5.71 172.96-5.44 173.48-5.18 174.06-5.18L174.06-5.18Q174.5-5.18 174.7-5.32L174.7-5.32Q175.09-4.88 175.33-4.42 175.58-3.96 175.97-3.56ZM160.68-11.38L160.68-11.38Q160.59-12.21 160.37-12.57 160.15-12.94 160-13.48L160-13.48Q159.8-14.16 159.73-14.94 159.66-15.72 159.51-16.46L159.51-16.46Q159.17-18.12 158.75-19.78 158.34-21.44 157.7-23L157.7-23Q157.9-23.29 157.9-23.54L157.9-23.54 157.9-23.68Q157.46-24.17 157.27-24.88 157.07-25.59 156.9-26.29 156.73-27 156.46-27.61 156.19-28.22 155.61-28.61L155.61-28.61Q155.46-28.32 155.46-27.93L155.46-27.93Q155.46-27.59 155.53-27.29 155.61-27 155.61-26.66L155.61-26.66Q155.12-26.42 154.9-25.9 154.68-25.39 154.19-25.1L154.19-25.1Q153.8-23.54 153.07-22.14 152.33-20.75 151.53-19.38 150.72-18.02 149.99-16.63 149.26-15.23 148.82-13.72L148.82-13.72Q148.18-13.28 147.96-12.6 147.74-11.91 147.74-11.23L147.74-11.23Q148.18-10.99 148.74-10.96 149.31-10.94 149.84-10.94 150.38-10.94 150.87-10.84 151.36-10.74 151.75-10.35L151.75-10.35Q152.38-10.55 153.14-10.62 153.9-10.69 154.38-11.04L154.38-11.04Q155.36-10.69 156.48-10.69L156.48-10.69Q157.07-10.69 157.63-10.79 158.19-10.89 158.73-11.04L158.73-11.04Q159.17-10.94 159.41-10.72 159.66-10.5 160.15-10.55L160.15-10.55Q160.39-10.74 160.44-10.96 160.49-11.18 160.68-11.38Z" fill="#f7f7f7" data-fill-palette-color="primary" id="svg_25"/><path d="M224.65-44.19L224.65-44.19Q224.65-42.48 224.02-40.89 223.38-39.31 223.09-37.65L223.09-37.65Q222.01-36.23 221.09-34.72 220.16-33.2 219.18-31.69 218.21-30.18 217.13-28.78 216.06-27.39 214.69-26.27L214.69-26.27Q214.74-26.22 214.74-26.07L214.74-26.07Q214.74-25.78 214.47-25.61 214.2-25.44 214.3-25.2L214.3-25.2Q213.08-23.93 211.91-22.71 210.74-21.48 209.76-19.97L209.76-19.97Q208.68-19.43 208-18.21L208-18.21Q207.71-18.21 207.56-18.09 207.42-17.97 207.17-17.87L207.17-17.87Q205.61-15.97 203.9-14.26 202.19-12.55 200.24-11.13L200.24-11.13Q199.51-10.6 198.77-10.16 198.04-9.72 197.36-9.23L197.36-9.23Q196.92-8.94 196.5-8.54 196.09-8.15 195.65-7.81L195.65-7.81Q194.23-6.59 192.86-5.79 191.5-4.98 189.64-4.69L189.64-4.69Q189.5-4.15 189.5-3.52L189.5-3.52 189.5-2.34Q189.5-1.76 189.45-1.15 189.4-0.54 189.1 0L189.1 0 189.1 0.15Q189.1 0.63 189.35 1.1 189.59 1.56 189.59 2.05L189.59 2.05Q189.59 2.39 189.25 2.64L189.25 2.64 190.52 2.64Q190.52 3.32 190.94 3.81 191.35 4.3 191.35 4.54L191.35 4.54Q191.35 5.37 191.18 6.37 191.01 7.37 190.18 7.71L190.18 7.71 190.18 8.01Q190.18 8.5 190.08 8.96 189.98 9.42 189.64 9.86L189.64 9.86Q189.35 9.86 189.08 9.89 188.81 9.91 188.57 9.91L188.57 9.91Q186.52 9.91 184.91 8.94L184.91 8.94Q184.37 7.67 184.2 6.32 184.03 4.98 184.03 3.61L184.03 3.61Q184.03 0.93 184.42-1.71 184.81-4.35 185.05-6.98L185.05-6.98 185.78-8.4Q185.88-9.77 186.13-11.16 186.37-12.55 186.61-13.92 186.86-15.28 187.03-16.65 187.2-18.02 187.15-19.38L187.15-19.38Q187.54-20.21 187.71-21.14 187.88-22.07 187.88-22.95L187.88-22.95Q187.88-23.44 187.84-23.93 187.79-24.41 187.54-24.85L187.54-24.85Q187.84-25.05 187.93-25.34 188.03-25.63 188.23-25.88L188.23-25.88Q188.37-27.78 188.47-29.66 188.57-31.54 188.57-33.4L188.57-33.4Q188.57-34.42 188.52-35.42 188.47-36.43 188.37-37.45L188.37-37.45Q188.32-37.84 188.2-38.38 188.08-38.92 188.08-39.21L188.08-39.21Q188.08-39.6 188.13-40.01 188.18-40.43 188.18-40.87L188.18-40.87Q188.18-41.36 188.08-41.82 187.98-42.29 187.74-42.68L187.74-42.68Q185.39-41.99 183.54-40.84 181.68-39.7 179.78-38.28L179.78-38.28Q179-37.74 178.07-37.01 177.14-36.28 176.31-35.89L176.31-35.89Q176.17-35.79 175.95-35.77 175.73-35.74 175.58-35.74L175.58-35.74Q175.04-35.74 174.6-35.82 174.16-35.89 173.72-35.89L173.72-35.89Q173.04-36.57 172.11-36.96L172.11-36.96Q171.97-37.55 171.97-38.23L171.97-38.23Q171.97-38.92 172.09-39.55 172.21-40.19 172.45-40.82L172.45-40.82Q173.04-41.02 173.7-41.26 174.36-41.5 174.97-41.82 175.58-42.14 176.07-42.55 176.56-42.97 176.85-43.6L176.85-43.6Q177.14-43.46 177.39-43.46L177.39-43.46Q177.63-43.46 177.83-43.51 178.02-43.55 178.26-43.6L178.26-43.6Q179.14-44.14 180.05-44.73 180.95-45.31 181.93-45.7L181.93-45.7Q182.22-45.8 182.27-45.95 182.32-46.09 182.27-46.39L182.27-46.39Q183.39-46.73 184.61-47.19 185.83-47.66 186.66-48.49L186.66-48.49 187.54-48.49Q188.27-49.02 189.1-49.37 189.93-49.71 190.79-50.02 191.64-50.34 192.47-50.71 193.3-51.07 194.04-51.66L194.04-51.66Q194.33-51.76 194.52-51.76L194.52-51.76Q194.77-51.76 195.06-51.66L195.06-51.66Q195.55-51.9 195.89-52.25L195.89-52.25 196.67-53.03Q197.45-53.03 198.09-53.17 198.72-53.32 199.31-53.56 199.9-53.81 200.46-54.13 201.02-54.44 201.7-54.79L201.7-54.79Q202-54.69 202.14-54.57 202.29-54.44 202.63-54.44L202.63-54.44Q203.12-54.79 203.68-54.96 204.24-55.13 204.83-55.22 205.41-55.32 205.97-55.47 206.54-55.62 206.98-56.01L206.98-56.01Q208.54-56.01 210.13-56.08 211.71-56.15 213.27-56.15L213.27-56.15Q215.52-56.15 217.84-55.81 220.16-55.47 222.01-54.1L222.01-54.1Q222.75-52.34 224.11-51.12L224.11-51.12Q224.21-50.59 224.33-50.12 224.46-49.66 224.65-49.22L224.65-49.22Q224.31-48.49 224.31-47.61L224.31-47.61Q224.31-46.73 224.48-45.87 224.65-45.02 224.65-44.19ZM220.11-45.36L220.11-45.36Q219.87-45.8 219.79-46.36 219.72-46.92 219.77-47.46L219.77-47.46Q219.13-47.95 218.79-48.73 218.45-49.51 217.82-49.9L217.82-49.9Q217.38-50.15 216.57-50.2 215.76-50.24 215.23-50.39L215.23-50.39Q214.59-50.59 214.37-50.78 214.15-50.98 213.47-50.98L213.47-50.98Q212.88-50.98 212.3-50.85 211.71-50.73 211.13-50.73L211.13-50.73Q210.64-50.73 210.2-50.93 209.76-51.12 209.27-51.12L209.27-51.12Q208.73-51.12 208.27-50.78 207.81-50.44 207.17-50.59L207.17-50.59Q206.88-50.34 206.85-50.2 206.83-50.05 206.78-49.98 206.73-49.9 206.54-49.9L206.54-49.9 205.85-49.9Q204.83-49.9 203.78-49.61 202.73-49.32 201.9-48.63L201.9-48.63Q201.75-48.68 201.63-48.71 201.51-48.73 201.36-48.73L201.36-48.73Q200.53-48.73 199.77-48.27 199.02-47.8 198.09-47.8L198.09-47.8Q197.5-47.22 196.67-46.88 195.84-46.53 194.99-46.22 194.13-45.9 193.4-45.48 192.67-45.07 192.28-44.29L192.28-44.29Q192.23-43.9 192.52-43.8 192.82-43.7 192.82-43.31L192.82-43.31Q192.82-42.97 192.69-42.48 192.57-41.99 192.57-41.5L192.57-41.5Q192.57-40.38 192.82-39.31 193.06-38.23 193.3-37.11L193.3-37.11Q193.06-36.96 192.96-36.67 192.86-36.38 192.62-36.23L192.62-36.23Q193.3-34.18 193.3-32.03L193.3-32.03Q193.3-30.32 192.94-28.69 192.57-27.05 192.43-25.34L192.43-25.34 192.43-25.29Q192.43-25 192.62-24.9 192.82-24.8 192.82-24.56L192.82-24.56Q192.82-24.41 192.77-24.32L192.77-24.32Q192.23-21 191.72-17.68 191.2-14.36 190.86-10.99L190.86-10.99 191.25-10.99Q192.52-10.99 193.52-11.74 194.52-12.5 195.21-13.43L195.21-13.43 195.99-13.43Q199.51-16.5 202.75-19.78 206-23.05 208.93-26.81L208.93-26.81Q209.32-26.81 209.47-27 209.61-27.2 209.95-27.29L209.95-27.29Q210.98-28.71 212.1-30.1 213.23-31.49 214.54-32.76L214.54-32.76Q214.59-33.25 214.81-33.64 215.03-34.03 215.28-34.38 215.52-34.72 215.72-35.11 215.91-35.5 215.91-36.04L215.91-36.04Q216.16-36.13 216.45-36.25 216.74-36.38 216.99-36.62L216.99-36.62Q217.08-37.11 217.33-37.5 217.57-37.89 217.57-38.38L217.57-38.38Q217.57-38.57 217.47-38.87L217.47-38.87Q218.26-39.21 218.69-39.99 219.13-40.77 219.38-41.72 219.62-42.68 219.74-43.65 219.87-44.63 220.11-45.36ZM248.43-12.55L248.43-12.55Q248.43-12.01 248.04-11.74 247.65-11.47 247.65-11.04L247.65-11.04Q247.65-10.84 247.84-10.55L247.84-10.55Q247.16-10.55 246.91-10.11 246.67-9.67 246.43-9.13L246.43-9.13 245.79-9.13Q245.55-9.13 245.4-9.03 245.25-8.94 245.13-8.76 245.01-8.59 244.82-8.25L244.82-8.25Q243.89-8.06 243.03-7.64 242.18-7.23 241.37-6.76 240.57-6.3 239.74-5.83 238.91-5.37 238.03-5.08L238.03-5.08Q237.59-4.35 236.76-3.91L236.76-3.91 236.61-3.91Q236.37-3.86 236.2-3.98 236.03-4.1 235.78-4.1L235.78-4.1Q235.64-4.1 235.59-4.05L235.59-4.05Q234.12-3.08 232.32-3.08L232.32-3.08Q231.83-3.08 231.39-3.15 230.95-3.22 230.46-3.22L230.46-3.22Q230.31-3.22 230.26-3.13L230.26-3.13 230.17-2.93Q230.12-2.83 230.04-2.73 229.97-2.64 229.68-2.64L229.68-2.64Q229.14-2.64 228.6-2.78 228.07-2.93 227.48-2.83L227.48-2.83Q226.36-3.47 225.72-4.05 225.09-4.64 224.55-5.81L224.55-5.81Q224.31-6.35 223.89-6.84 223.48-7.32 223.28-7.91L223.28-7.91Q223.23-8.11 223.14-8.62 223.04-9.13 222.94-9.72 222.84-10.3 222.77-10.84 222.7-11.38 222.7-11.57L222.7-11.57Q222.7-12.16 222.77-12.72 222.84-13.28 222.94-13.87L222.94-13.87Q223.23-15.72 223.36-17.6 223.48-19.48 224.16-21.24L224.16-21.24Q224.06-21.78 224.06-22.27L224.06-22.27 224.06-23.34Q224.06-24.27 223.82-24.9L223.82-24.9Q224.21-25.54 224.21-26.32L224.21-26.32Q224.21-27.2 223.48-27.34L223.48-27.34 223.48-27.49Q223.48-28.52 222.79-29.1L222.79-29.1Q222.79-30.81 223.65-31.67 224.5-32.52 225.92-33.15L225.92-33.15Q226.11-33.45 226.07-33.64L226.07-33.64Q226.41-33.54 226.7-33.45 226.99-33.35 227.29-33.35L227.29-33.35Q227.77-33.35 228.16-33.5L228.16-33.5Q228.31-32.91 228.92-32.79 229.53-32.67 229.92-32.47L229.92-32.47 229.92-31.84Q229.92-30.32 230.66-28.96L230.66-28.96Q230.46-28.56 230.41-28.13 230.36-27.69 230.36-27.29L230.36-27.29Q230.36-26.71 230.41-26.12 230.46-25.54 230.46-25L230.46-25Q230.46-24.41 230.34-23.83 230.22-23.24 229.78-22.8L229.78-22.8Q229.73-22.17 229.7-21.36 229.68-20.56 229.61-19.73 229.53-18.9 229.34-18.12 229.14-17.33 228.75-16.85L228.75-16.85Q228.7-16.11 228.68-15.36 228.65-14.6 228.65-13.92L228.65-13.92Q228.65-12.84 228.78-11.38 228.9-9.91 229.43-8.94L229.43-8.94Q229.68-8.54 230.39-8.35 231.09-8.15 231.53-8.15L231.53-8.15Q232.07-8.15 232.63-8.33 233.19-8.5 233.44-8.94L233.44-8.94Q233.73-8.89 233.83-8.64 233.93-8.4 234.17-8.25L234.17-8.25Q236.95-9.42 239.74-10.5 242.52-11.57 245.21-12.99L245.21-12.99Q245.6-12.79 246.04-12.79L246.04-12.79Q246.52-12.79 247.01-12.89 247.5-12.99 247.99-12.99L247.99-12.99 248.33-12.99Q248.43-12.7 248.43-12.55ZM284.41-3.56L284.41-3.56Q284.27-2.88 283.8-2.47 283.34-2.05 282.7-1.81 282.07-1.56 281.41-1.49 280.75-1.42 280.21-1.42L280.21-1.42Q279.97-1.42 279.75-1.44 279.53-1.46 279.29-1.46L279.29-1.46Q279.04-1.46 279.04-1.22 279.04-0.98 278.8-0.88L278.8-0.88Q278.55-0.98 278.31-1.03 278.06-1.07 277.82-1.07L277.82-1.07Q277.48-1.07 277.16-1.03 276.84-0.98 276.55-0.98L276.55-0.98Q276.16-0.98 275.99-1.07 275.82-1.17 275.7-1.29 275.57-1.42 275.45-1.56 275.33-1.71 275.09-1.81L275.09-1.81Q274.74-1.95 274.52-1.86 274.3-1.76 273.87-2.15L273.87-2.15Q273.28-2.64 272.86-3.34 272.45-4.05 272.06-4.83 271.67-5.62 271.23-6.4 270.79-7.18 270.2-7.76L270.2-7.76 269.81-7.76Q268.93-7.76 268.59-7.03L268.59-7.03Q268.35-7.18 268.1-7.4 267.86-7.62 267.57-7.76L267.57-7.76Q266.44-7.42 265.22-7.18 264-6.93 262.78-6.93L262.78-6.93 262.1-6.93Q261.8-6.93 261.46-7.03L261.46-7.03Q260.97-6.84 260.58-6.57 260.19-6.3 259.71-6.3L259.71-6.3Q259.41-6.3 259.02-6.49L259.02-6.49Q258.73-6.49 258.75-6.25 258.78-6.01 258.44-6.01L258.44-6.01 258-6.01Q257.31-6.01 256.65-5.96 255.99-5.91 255.31-5.91L255.31-5.91Q254.38-5.91 253.41-6.15L253.41-6.15Q253.16-6.01 252.87-6.01L252.87-6.01Q252.67-5.91 252.58-5.69 252.48-5.47 252.38-5.3 252.28-5.13 252.11-5 251.94-4.88 251.65-4.93L251.65-4.93Q251.55-4.35 251.16-4 250.77-3.66 250.77-2.98L250.77-2.98Q250.23-2.69 249.89-2.25 249.55-1.81 249.21-1.32 248.87-0.83 248.5-0.39 248.13 0.05 247.6 0.29L247.6 0.29Q247.35 0.59 247.45 1.22L247.45 1.22Q246.91 1.66 246.13 2 245.35 2.34 244.67 2.34L244.67 2.34Q243.25 2.34 242.71 0.83L242.71 0.83Q242.71 0.34 242.79-0.22 242.86-0.78 243.01-1.29 243.15-1.81 243.45-2.22 243.74-2.64 244.28-2.83L244.28-2.83Q244.28-3.27 243.98-3.44 243.69-3.61 243.74-4.05L243.74-4.05Q245.06-4.69 246.03-5.71 247.01-6.74 247.82-7.89 248.62-9.03 249.45-10.21 250.28-11.38 251.31-12.3L251.31-12.3 251.31-13.33Q252.77-14.89 253.21-16.85L253.21-16.85Q253.75-16.94 253.92-17.33 254.09-17.72 254.09-18.26L254.09-18.26Q254.33-18.26 254.41-18.48 254.48-18.7 254.82-18.6L254.82-18.6Q255.26-19.78 255.8-20.75 256.34-21.73 256.87-22.73 257.41-23.73 257.83-24.8 258.24-25.88 258.44-27.2L258.44-27.2Q259.12-27.25 259.19-27.86 259.27-28.47 259.36-28.96L259.36-28.96Q260.1-29.64 260.46-30.57 260.83-31.49 261.12-32.5 261.41-33.5 261.78-34.5 262.15-35.5 262.83-36.28L262.83-36.28 262.83-36.43Q262.83-36.67 262.63-36.74 262.44-36.82 262.44-37.06L262.44-37.06Q262.49-37.11 262.49-37.16L262.49-37.16Q263.07-37.4 263.37-37.96 263.66-38.53 264.25-38.77L264.25-38.77Q265.27-37.94 266.05-37.77 266.83-37.6 268.1-37.5L268.1-37.5Q268.74-36.82 268.81-35.86 268.88-34.91 269.13-33.98L269.13-33.98Q269.52-32.42 269.98-30.93 270.45-29.44 270.69-27.88L270.69-27.88Q270.84-26.95 271.23-26.12 271.62-25.29 271.77-24.41L271.77-24.41Q271.86-23.73 271.77-22.88 271.67-22.02 271.96-21.39L271.96-21.39 272.3-20.61Q272.55-20.07 272.72-19.48 272.89-18.9 273.04-18.31L273.04-18.31Q273.43-16.85 273.74-15.16 274.06-13.48 274.74-12.11L274.74-12.11Q274.99-11.62 275.5-11.43 276.01-11.23 276.65-11.16 277.28-11.08 277.89-11.11 278.5-11.13 278.94-11.13L278.94-11.13 279.43-11.13Q279.72-11.13 280.02-11.04L280.02-11.04Q280.21-10.64 280.21-10.35L280.21-10.35Q280.21-9.77 279.82-9.42 279.43-9.08 279.43-8.64L279.43-8.64Q279.43-8.4 279.63-8.11L279.63-8.11Q279.43-8.15 279.04-8.15L279.04-8.15Q277.92-8.15 276.84-7.76L276.84-7.76Q277.23-6.93 277.89-6.37 278.55-5.81 279.29-5.32L279.29-5.32Q279.77-5.71 280.31-5.71L280.31-5.71Q280.9-5.71 281.41-5.44 281.92-5.18 282.51-5.18L282.51-5.18Q282.95-5.18 283.14-5.32L283.14-5.32Q283.53-4.88 283.78-4.42 284.02-3.96 284.41-3.56ZM269.13-11.38L269.13-11.38Q269.03-12.21 268.81-12.57 268.59-12.94 268.45-13.48L268.45-13.48Q268.25-14.16 268.18-14.94 268.1-15.72 267.96-16.46L267.96-16.46Q267.62-18.12 267.2-19.78 266.79-21.44 266.15-23L266.15-23Q266.35-23.29 266.35-23.54L266.35-23.54 266.35-23.68Q265.91-24.17 265.71-24.88 265.52-25.59 265.34-26.29 265.17-27 264.91-27.61 264.64-28.22 264.05-28.61L264.05-28.61Q263.9-28.32 263.9-27.93L263.9-27.93Q263.9-27.59 263.98-27.29 264.05-27 264.05-26.66L264.05-26.66Q263.56-26.42 263.34-25.9 263.12-25.39 262.63-25.1L262.63-25.1Q262.24-23.54 261.51-22.14 260.78-20.75 259.97-19.38 259.17-18.02 258.44-16.63 257.7-15.23 257.26-13.72L257.26-13.72Q256.63-13.28 256.41-12.6 256.19-11.91 256.19-11.23L256.19-11.23Q256.63-10.99 257.19-10.96 257.75-10.94 258.29-10.94 258.83-10.94 259.31-10.84 259.8-10.74 260.19-10.35L260.19-10.35Q260.83-10.55 261.59-10.62 262.34-10.69 262.83-11.04L262.83-11.04Q263.81-10.69 264.93-10.69L264.93-10.69Q265.52-10.69 266.08-10.79 266.64-10.89 267.18-11.04L267.18-11.04Q267.62-10.94 267.86-10.72 268.1-10.5 268.59-10.55L268.59-10.55Q268.84-10.74 268.88-10.96 268.93-11.18 269.13-11.38ZM339.68-12.16L339.68-12.16Q339.49-11.33 338.93-10.86 338.36-10.4 337.63-10.16 336.9-9.91 336.09-9.81 335.29-9.72 334.65-9.67L334.65-9.67Q333.97-9.33 333.43-8.91 332.9-8.5 332.31-8.11L332.31-8.11Q328.01-7.57 323.81-6.79 319.61-6.01 315.32-5.47L315.32-5.47Q314.73-5.08 313.8-4.96 312.88-4.83 311.88-4.76 310.87-4.69 309.9-4.52 308.92-4.35 308.19-3.91L308.19-3.91Q305.02-3.76 302.04-2.83L302.04-2.83Q301.5-2.98 300.94-3.08 300.38-3.17 299.84-3.17L299.84-3.17Q299.45-3.17 298.96-3.1 298.47-3.03 298.18-2.64L298.18-2.64Q297.01-3.56 295.4-3.32L295.4-3.32Q294.08-3.91 293.08-4.79 292.08-5.66 291.54-7.03L291.54-7.03Q291.59-7.81 291.54-8.23 291.49-8.64 290.86-9.13L290.86-9.13Q290.86-9.47 291.07-9.67 291.29-9.86 291.34-10.21L291.34-10.21Q291.15-10.55 291.15-11.04L291.15-11.04Q291.15-11.87 291.44-12.72 291.73-13.57 291.54-14.4L291.54-14.4Q292.22-15.53 293.1-16.53 293.98-17.53 294.88-18.48 295.79-19.43 296.69-20.41 297.59-21.39 298.37-22.46L298.37-22.46Q299.3-22.75 300.06-23.36 300.82-23.97 301.52-24.66 302.23-25.34 302.96-25.98 303.7-26.61 304.67-27L304.67-27Q304.77-27.29 304.99-27.51 305.21-27.73 305.45-27.93 305.7-28.13 305.92-28.37 306.14-28.61 306.24-28.96L306.24-28.96 305.8-28.96Q303.6-28.96 301.4-28.69 299.2-28.42 297.03-28.05 294.86-27.69 292.71-27.29 290.56-26.9 288.36-26.66L288.36-26.66Q287.53-26.22 286.56-25.88 285.58-25.54 284.63-25.2 283.68-24.85 282.77-24.41 281.87-23.97 281.19-23.34L281.19-23.34Q281.04-23.29 280.75-23.29L280.75-23.29Q280.21-23.29 279.82-23.51 279.43-23.73 278.94-23.83L278.94-23.83Q278.84-24.61 278.62-25.32 278.4-26.03 278.4-26.81L278.4-26.81Q278.4-27.44 278.6-27.88L278.6-27.88Q279.28-27.88 279.55-28.32 279.82-28.76 280.36-29.1L280.36-29.1Q280.5-28.96 280.65-28.96L280.65-28.96Q280.89-28.96 281.09-29.15 281.28-29.35 281.58-29.54 281.87-29.74 282.26-29.88 282.65-30.03 283.29-29.98L283.29-29.98Q284.75-30.76 286.05-30.96 287.34-31.15 288.9-31.4L288.9-31.4Q289.29-31.49 289.44-31.64 289.59-31.79 289.78-32.08L289.78-32.08 290.81-32.03Q292.91-31.93 295.01-32.3 297.11-32.67 299.18-33.11 301.26-33.54 303.38-33.86 305.5-34.18 307.65-33.98L307.65-33.98Q308.19-34.23 308.75-34.28 309.31-34.33 309.9-34.33L309.9-34.33Q310.68-34.33 311.61-34.18 312.53-34.03 313.34-33.64 314.15-33.25 314.66-32.59 315.17-31.93 315.17-30.96L315.17-30.96Q315.17-30.42 314.93-29.98 314.68-29.54 314.34-29.15 314-28.76 313.61-28.39 313.22-28.03 312.88-27.69L312.88-27.69Q312.34-27.1 311.88-26.44 311.41-25.78 310.78-25.24L310.78-25.24Q310.44-25.29 310.26-25.1 310.09-24.9 309.75-24.9L309.75-24.9Q309.12-24.61 309.02-23.83L309.02-23.83Q307.7-23.29 306.48-22.56 305.26-21.83 304.48-20.56L304.48-20.56Q303.45-19.92 302.55-19.12 301.65-18.31 300.82-17.43 299.99-16.55 299.18-15.65 298.37-14.75 297.5-13.92L297.5-13.92Q297.4-13.18 297.15-12.55 296.91-11.91 296.62-11.23L296.62-11.23Q296.62-10.69 296.96-10.3 297.3-9.91 297.3-9.28L297.3-9.28Q298.52-9.03 299.72-8.91 300.91-8.79 302.18-8.79L302.18-8.79Q303.4-8.79 304.62-8.96 305.85-9.13 306.92-9.67L306.92-9.67Q307.65-9.47 308.43-9.47L308.43-9.47Q309.51-9.47 310.51-9.69 311.51-9.91 312.53-9.86L312.53-9.86Q313.76-10.3 315.05-10.47 316.34-10.64 317.61-10.77 318.88-10.89 320.18-11.08 321.47-11.28 322.69-11.82L322.69-11.82Q323.37-11.67 323.96-11.77 324.55-11.87 325.23-11.87L325.23-11.87Q325.72-11.87 326.4-11.57L326.4-11.57Q327.18-11.96 328.04-12.26 328.89-12.55 329.77-12.55L329.77-12.55Q330.11-12.55 330.45-12.5 330.8-12.45 331.09-12.3L331.09-12.3Q331.19-12.35 331.58-12.5 331.97-12.65 332.41-12.79 332.85-12.94 333.24-13.06 333.63-13.18 333.73-13.18L333.73-13.18Q334.12-13.18 334.09-12.96 334.07-12.74 334.31-12.74L334.31-12.74Q335.14-12.74 335.92-13.06 336.7-13.38 337.53-13.38L337.53-13.38Q337.88-13.38 338.17-13.33 338.46-13.28 338.85-13.18L338.85-13.18Q339.05-12.89 339.19-12.57 339.34-12.26 339.68-12.16ZM359.65-3.56L359.65-3.56Q359.5-2.88 359.04-2.47 358.58-2.05 357.94-1.81 357.31-1.56 356.65-1.49 355.99-1.42 355.45-1.42L355.45-1.42Q355.21-1.42 354.99-1.44 354.77-1.46 354.52-1.46L354.52-1.46Q354.28-1.46 354.28-1.22 354.28-0.98 354.04-0.88L354.04-0.88Q353.79-0.98 353.55-1.03 353.3-1.07 353.06-1.07L353.06-1.07Q352.72-1.07 352.4-1.03 352.08-0.98 351.79-0.98L351.79-0.98Q351.4-0.98 351.23-1.07 351.06-1.17 350.94-1.29 350.81-1.42 350.69-1.56 350.57-1.71 350.33-1.81L350.33-1.81Q349.98-1.95 349.76-1.86 349.54-1.76 349.1-2.15L349.1-2.15Q348.52-2.64 348.1-3.34 347.69-4.05 347.3-4.83 346.91-5.62 346.47-6.4 346.03-7.18 345.44-7.76L345.44-7.76 345.05-7.76Q344.17-7.76 343.83-7.03L343.83-7.03Q343.59-7.18 343.34-7.4 343.1-7.62 342.81-7.76L342.81-7.76Q341.68-7.42 340.46-7.18 339.24-6.93 338.02-6.93L338.02-6.93 337.34-6.93Q337.04-6.93 336.7-7.03L336.7-7.03Q336.21-6.84 335.82-6.57 335.43-6.3 334.94-6.3L334.94-6.3Q334.65-6.3 334.26-6.49L334.26-6.49Q333.97-6.49 333.99-6.25 334.02-6.01 333.67-6.01L333.67-6.01 333.24-6.01Q332.55-6.01 331.89-5.96 331.23-5.91 330.55-5.91L330.55-5.91Q329.62-5.91 328.65-6.15L328.65-6.15Q328.4-6.01 328.11-6.01L328.11-6.01Q327.91-5.91 327.82-5.69 327.72-5.47 327.62-5.3 327.52-5.13 327.35-5 327.18-4.88 326.89-4.93L326.89-4.93Q326.79-4.35 326.4-4 326.01-3.66 326.01-2.98L326.01-2.98Q325.47-2.69 325.13-2.25 324.79-1.81 324.45-1.32 324.1-0.83 323.74-0.39 323.37 0.05 322.84 0.29L322.84 0.29Q322.59 0.59 322.69 1.22L322.69 1.22Q322.15 1.66 321.37 2 320.59 2.34 319.91 2.34L319.91 2.34Q318.49 2.34 317.95 0.83L317.95 0.83Q317.95 0.34 318.03-0.22 318.1-0.78 318.25-1.29 318.39-1.81 318.68-2.22 318.98-2.64 319.51-2.83L319.51-2.83Q319.51-3.27 319.22-3.44 318.93-3.61 318.98-4.05L318.98-4.05Q320.3-4.69 321.27-5.71 322.25-6.74 323.05-7.89 323.86-9.03 324.69-10.21 325.52-11.38 326.55-12.3L326.55-12.3 326.55-13.33Q328.01-14.89 328.45-16.85L328.45-16.85Q328.99-16.94 329.16-17.33 329.33-17.72 329.33-18.26L329.33-18.26Q329.57-18.26 329.65-18.48 329.72-18.7 330.06-18.6L330.06-18.6Q330.5-19.78 331.04-20.75 331.58-21.73 332.11-22.73 332.65-23.73 333.06-24.8 333.48-25.88 333.67-27.2L333.67-27.2Q334.36-27.25 334.43-27.86 334.5-28.47 334.6-28.96L334.6-28.96Q335.34-29.64 335.7-30.57 336.07-31.49 336.36-32.5 336.65-33.5 337.02-34.5 337.39-35.5 338.07-36.28L338.07-36.28 338.07-36.43Q338.07-36.67 337.87-36.74 337.68-36.82 337.68-37.06L337.68-37.06Q337.73-37.11 337.73-37.16L337.73-37.16Q338.31-37.4 338.61-37.96 338.9-38.53 339.49-38.77L339.49-38.77Q340.51-37.94 341.29-37.77 342.07-37.6 343.34-37.5L343.34-37.5Q343.98-36.82 344.05-35.86 344.12-34.91 344.37-33.98L344.37-33.98Q344.76-32.42 345.22-30.93 345.69-29.44 345.93-27.88L345.93-27.88Q346.08-26.95 346.47-26.12 346.86-25.29 347-24.41L347-24.41Q347.1-23.73 347-22.88 346.91-22.02 347.2-21.39L347.2-21.39 347.54-20.61Q347.79-20.07 347.96-19.48 348.13-18.9 348.27-18.31L348.27-18.31Q348.67-16.85 348.98-15.16 349.3-13.48 349.98-12.11L349.98-12.11Q350.23-11.62 350.74-11.43 351.25-11.23 351.89-11.16 352.52-11.08 353.13-11.11 353.74-11.13 354.18-11.13L354.18-11.13 354.67-11.13Q354.96-11.13 355.26-11.04L355.26-11.04Q355.45-10.64 355.45-10.35L355.45-10.35Q355.45-9.77 355.06-9.42 354.67-9.08 354.67-8.64L354.67-8.64Q354.67-8.4 354.87-8.11L354.87-8.11Q354.67-8.15 354.28-8.15L354.28-8.15Q353.16-8.15 352.08-7.76L352.08-7.76Q352.47-6.93 353.13-6.37 353.79-5.81 354.52-5.32L354.52-5.32Q355.01-5.71 355.55-5.71L355.55-5.71Q356.14-5.71 356.65-5.44 357.16-5.18 357.75-5.18L357.75-5.18Q358.19-5.18 358.38-5.32L358.38-5.32Q358.77-4.88 359.02-4.42 359.26-3.96 359.65-3.56ZM344.37-11.38L344.37-11.38Q344.27-12.21 344.05-12.57 343.83-12.94 343.68-13.48L343.68-13.48Q343.49-14.16 343.42-14.94 343.34-15.72 343.2-16.46L343.2-16.46Q342.85-18.12 342.44-19.78 342.02-21.44 341.39-23L341.39-23Q341.59-23.29 341.59-23.54L341.59-23.54 341.59-23.68Q341.15-24.17 340.95-24.88 340.75-25.59 340.58-26.29 340.41-27 340.14-27.61 339.88-28.22 339.29-28.61L339.29-28.61Q339.14-28.32 339.14-27.93L339.14-27.93Q339.14-27.59 339.22-27.29 339.29-27 339.29-26.66L339.29-26.66Q338.8-26.42 338.58-25.9 338.36-25.39 337.87-25.1L337.87-25.1Q337.48-23.54 336.75-22.14 336.02-20.75 335.21-19.38 334.41-18.02 333.67-16.63 332.94-15.23 332.5-13.72L332.5-13.72Q331.87-13.28 331.65-12.6 331.43-11.91 331.43-11.23L331.43-11.23Q331.87-10.99 332.43-10.96 332.99-10.94 333.53-10.94 334.07-10.94 334.55-10.84 335.04-10.74 335.43-10.35L335.43-10.35Q336.07-10.55 336.82-10.62 337.58-10.69 338.07-11.04L338.07-11.04Q339.05-10.69 340.17-10.69L340.17-10.69Q340.75-10.69 341.32-10.79 341.88-10.89 342.42-11.04L342.42-11.04Q342.85-10.94 343.1-10.72 343.34-10.5 343.83-10.55L343.83-10.55Q344.08-10.74 344.12-10.96 344.17-11.18 344.37-11.38Z" fill="#ea3c12" data-fill-palette-color="secondary" id="svg_26"/></g></svg></g></svg></g></svg></g></svg></g><g transform="matrix(1,0,0,1,412.74336342066255,0) " id="svg_16"><svg viewBox="0 0 201.64066546852092 201.65275798773007" height="201.6527557373047" width="201.6406707763672" id="svg_27"><g id="svg_18"><svg xmlns="http://www.w3.org/2000/svg" xmlns:xlink="http://www.w3.org/1999/xlink" version="1.1" x="0" y="0" viewBox="0.003000000026077032 0 99.99400329589844 100" enable-background="new 0.003 0 99.994 100" xml:space="preserve" width="201.6406707763672" height="201.6527557373047" class="icon-icon-0" data-fill-palette-color="accent" id="svg_17"><g fill="#ffffff" data-fill-palette-color="accent" id="svg_28"><path d="M33.326 0l-4.162 12.505c0.122 0.043 0.231 0.098 0.354 0.141L29 12.994c0 0 5.272 2.637 13.183 7.916 6.115 4.071 10.675 5.054 16.076 7.69 3.387 2.776 6.572 5.785 9.545 9.002 2.203 1.825 4.986 4.09 8.653 7.025 11.536 9.221 8.941 16.447 9.876 23.394 0.36 0.963 0.842 1.843 1.165 2.808l12.499-4.163C89.531 35.264 64.733 10.467 33.326 0z" fill="#ffffff" data-fill-palette-color="accent" id="svg_29"/><path d="M58.002 57.814c-5.822 0-10.547 4.712-10.547 10.546 0 5.822 4.725 10.547 10.547 10.547 5.828 0 10.546-4.725 10.546-10.547C68.548 62.526 63.83 57.814 58.002 57.814z" fill="#ffffff" data-fill-palette-color="accent" id="svg_30"/><path d="M15.822 84.182c5.817 0 10.547-4.726 10.547-10.547 0-5.823-4.729-10.547-10.547-10.547-1.336 0-2.6 0.317-3.771 0.769L6.984 79.041C8.84 82.068 12.021 84.182 15.822 84.182z" fill="#ffffff" data-fill-palette-color="accent" id="svg_31"/><path d="M34.272 36.723c-2.911 0-5.272 2.355-5.272 5.278 0 2.905 2.361 5.268 5.272 5.268s5.272-2.361 5.272-5.268C39.545 39.079 37.184 36.723 34.272 36.723z" fill="#ffffff" data-fill-palette-color="accent" id="svg_32"/><path d="M42.183 68.36c0-8.739 7.085-15.818 15.819-15.818 8.739 0 15.819 7.079 15.819 15.818 0 2.82-0.799 5.433-2.094 7.727L82.5 72.499c-0.557-1.672-1.337-3.223-1.99-4.834-0.438-6.128 1.545-11.692-9.319-20.396-3.008-2.411-5.412-4.356-7.422-6.012-2.037-2.197-4.106-4.382-6.357-6.372-6.195-3.369-11.108-4.205-17.865-8.709-6.354-4.235-10.851-6.683-12.432-7.519L14.005 57.998c0.598-0.073 1.196-0.184 1.818-0.184 8.734 0 15.819 7.079 15.819 15.819 0 8.739-7.085 15.819-15.819 15.819-4.21 0-8.02-1.686-10.851-4.357L0.003 100l51.591-17.199C46.058 80.335 42.183 74.817 42.183 68.36zM34.272 52.542c-5.821 0-10.546-4.718-10.546-10.541 0-5.828 4.725-10.546 10.546-10.546 5.829 0 10.546 4.719 10.546 10.546C44.818 47.824 40.102 52.542 34.272 52.542z" fill="#ffffff" data-fill-palette-color="accent" id="svg_33"/></g></svg></g></svg></g></svg></g></svg></g><rect width="395.5199890136719" height="129.8173370361328" fill="none" stroke="none" visibility="hidden" transform="matrix(1,0,0,1,122.24000000000001,135.09133124479956) " id="svg_34" y="-131.5315284729004" x="-118.91891860961914"/></g></g></svg>